<svg width="16" height="27" viewBox="0 0 16 27" fill="none" xmlns="http://www.w3.org/2000/svg">
<path fill-rule="evenodd" clip-rule="evenodd" d="M16 8C16 8.74729 15.8975 9.47064 15.7059 10.1568H15.7433L15.639 10.3834C15.4328 11.0449 15.1431 11.6695 14.7821 12.245L7.99997 26.9803L1.21762 12.2446C0.856879 11.6694 0.567286 11.045 0.361172 10.3838L0.25668 10.1568H0.294099C0.10246 9.47064 0 8.74729 0 8C0 3.58172 3.58172 0 8 0C12.4183 0 16 3.58172 16 8ZM7.99998 10.6668C10.1658 10.6668 11.9216 8.91103 11.9216 6.7452C11.9216 4.57938 10.1658 2.82363 7.99998 2.82363C5.83416 2.82363 4.07842 4.57938 4.07842 6.7452C4.07842 8.91103 5.83416 10.6668 7.99998 10.6668Z" fill="url(#paint0_linear_1_9)"/>
<defs>
<linearGradient id="paint0_linear_1_9" x1="8" y1="1.2549" x2="10.1961" y2="25.098" gradientUnits="userSpaceOnUse">
<stop stop-color="#F90000"/>
<stop offset="1" stop-color="#930000"/>
</linearGradient>
</defs>
</svg>
